General
Complete name                    :  Tom & Jerry_ The Fast And The Furry (DVDRip)aaaevilacharya.m4v
Format                           : MPEG-4
Format profile                   : Base Media / Version 2
Codec ID                         : mp42
File size                        : 250 MiB
Duration                         : 1h 14mn
Overall bit rate                 : 469 Kbps
Encoded date                     : UTC 2010-11-29 21:53:03


Video

ID                               : 1
Format                           : AVC
Format/Info                      : Advanced Video Codec
Format profile                   : Baseline@L3.0
Format settings, CABAC           : No
Format settings, ReFrames        : 1 frame
Codec ID                         : avc1
Codec ID/Info                    : Advanced Video Coding
Duration                         : 1h 14mn
Bit rate mode                    : Variable
Bit rate                         : 353 Kbps
Width                            : 480 pixels
Height                           : 208 pixels
Display aspect ratio             : 2.35:1
Frame rate mode                  : Variable
Frame rate                       : 23.976 fps
Minimum frame rate               : 11.987 fps
Maximum frame rate               : 23.981 fps
Color space                      : YUV
Chroma subsampling               : 4:2:0
Bit depth                        : 8 bits
Scan type                        : Progressive
Bits/(Pixel*Frame)               : 0.147
Stream size                      : 188 MiB (75%)
Writing library                  : x264 core 79


Audio
ID                               : 2
Format                           : AAC
Format/Info                      : Advanced Audio Codec
Format version                   : Version 4
Format profile                   : LC
Format settings, SBR             : No
Codec ID                         : 40
Duration                         : 1h 14mn
Bit rate mode                    : Variable
Bit rate                         : 112 Kbps
Maximum bit rate                 : 202 Kbps
Channel(s)                       : 2 channels
Channel positions                : Front: L R
Sampling rate                    : 44.1 KHz
Stream size                      : 59.7 MiB (24%)
Encoded date                     : UTC 2010-11-29 21:53:03
Tagged date                      : UTC 2010-11-29 22:33:52


Text
ID                               : 3
Format                           : Apple text
Codec ID                         : text
Duration                         : 1h 14mn
Bit rate                         : 0
Stream size                      : 14.0 Bytes (0%)
Encoded date                     : UTC 2010-11-29 21:53:03
Tagged date                      : UTC 2010-11-29 22:33:52

screenshots 
http://img72.imageshack.us/img72/7119/tomjerrythefastandthefu.jpg
http://img715.imageshack.us/img715/7119/tomjerrythefastandthefu.jpg
http://img832.imageshack.us/img832/7119/tomjerrythefastandthefu.jpg
http://img222.imageshack.us/img222/7119/tomjerrythefastandthefu.jpg
http://img440.imageshack.us/img440/7119/tomjerrythefastandthefu.jpg
http://img403.imageshack.us/img403/7197/tom20e20jerry2020fast20.jpg
